<?xml version="1.0" standalone="no"?>
<!DOCTYPE svg PUBLIC "-//W3C//DTD SVG 20010904//EN"
 "http://www.w3.org/TR/2001/REC-SVG-20010904/DTD/svg10.dtd">
<svg version="1.0" xmlns="http://www.w3.org/2000/svg"
 width="700.000000pt" height="700.000000pt" viewBox="0 0 700.000000 700.000000"
 preserveAspectRatio="xMidYMid meet">
<metadata>
Created by potrace 1.11, written by Peter Selinger 2001-2013
</metadata>
<g transform="translate(0.000000,700.000000) scale(0.100000,-0.100000)"
fill="#000000" stroke="none">
<path d="M3410 6984 c-124 -45 -314 -215 -455 -407 -38 -53 -74 -96 -78 -96
-4 -1 -40 21 -80 47 -256 173 -590 328 -776 362 -74 13 -173 16 -221 5 -93
-20 -178 -91 -217 -181 -25 -58 -25 -61 -26 -159 0 -69 5 -105 23 -155 101
-287 335 -581 850 -1069 l85 -81 -105 0 c-121 0 -161 -14 -197 -69 -45 -67
-21 -160 53 -203 26 -15 54 -18 168 -19 75 0 136 -3 136 -7 0 -4 -8 -15 -17
-23 -10 -9 -49 -51 -88 -94 -38 -43 -91 -102 -116 -129 -220 -240 -572 -664
-851 -1026 -132 -172 -363 -512 -468 -690 -75 -126 -199 -380 -230 -470 -12
-36 -25 -72 -28 -80 -44 -122 -53 -327 -21 -522 18 -111 74 -326 90 -343 5 -5
9 -16 9 -24 0 -27 132 -282 188 -364 109 -159 168 -232 297 -360 263 -263 605
-475 1000 -622 117 -44 272 -91 360 -110 152 -34 249 -52 315 -60 25 -3 56 -7
68 -10 162 -31 698 -26 909 9 21 4 52 8 68 10 17 3 77 14 135 26 702 143 1324
512 1695 1005 148 198 276 461 334 690 43 167 61 414 41 536 -12 72 -57 223
-84 284 -8 17 -24 53 -36 80 -97 215 -248 468 -467 779 -54 77 -103 144 -108
150 -6 6 -42 54 -80 106 -67 91 -371 473 -426 535 -14 17 -84 98 -155 180
-122 143 -336 386 -379 431 -51 53 -95 104 -95 108 0 3 61 5 136 5 114 0 141
3 167 19 75 43 99 136 54 203 -37 55 -76 69 -199 69 l-107 0 57 53 c358 330
570 563 729 802 195 291 230 512 108 677 -161 218 -537 141 -1146 -236 -87
-54 -113 -66 -119 -55 -20 35 -139 182 -211 261 -74 81 -192 178 -249 206 -84
40 -173 50 -240 26z"/>
</g>
</svg>
